<svg xmlns="http://www.w3.org/2000/svg" fill="#ffffff" version="1.1" id="Capa_1" xmlns="http://www.w3.org/2000/svg" xmlns:xlink="http://www.w3.org/1999/xlink" viewBox="0 0 180.392 180.392" xml:space="preserve"><g id="SVGRepo_bgCarrier" stroke-width="0"></g><g id="SVGRepo_tracerCarrier" stroke-linecap="round" stroke-linejoin="round"></g><g id="SVGRepo_iconCarrier"> <g> <g> <path d="M119.4,86.452c15.037-5.22,25.04-14.309,25.04-24.689v-0.006v-0.005c-0.033-3.032-13.943-5.619-33.664-6.703l-0.086-0.537 c-0.429-1.604-1.315-3.146-2.344-4.525c1.379,1.023,2.923,1.91,4.53,2.342c5.271,1.411,8.417-0.033,9.117-2.676 c0.711-2.637-1.284-5.466-6.564-6.878c-1.593-0.427-3.384-0.432-5.089-0.235c1.573-0.689,3.119-1.576,4.295-2.753 c3.856-3.863,4.179-7.305,2.247-9.242c-1.926-1.926-5.379-1.614-9.241,2.249c-1.172,1.172-2.063,2.714-2.753,4.295 c0.208-1.707,0.208-3.491-0.23-5.094c-1.411-5.27-4.234-7.278-6.883-6.572c-2.635,0.706-4.084,3.857-2.668,9.133 c0.427,1.597,1.315,3.146,2.344,4.525c-1.381-1.023-2.926-1.915-4.529-2.347c-5.273-1.407-8.416,0.038-9.123,2.675 c-0.705,2.643,1.289,5.466,6.567,6.878c1.604,0.427,3.385,0.438,5.094,0.235c-1.583,0.684-3.126,1.576-4.302,2.747 c-1.889,1.888-2.92,3.678-3.262,5.243c-28.862,0.164-51.914,3.327-51.949,7.233v0.006v0.005c0,10.381,9.997,19.47,25.043,24.69 c-20.145,10.545-33.914,31.617-33.914,55.924c0,14.293,4.811,27.437,12.811,38.014h22.396c-4.438-5.871-7.104-13.159-7.104-21.083 c0-19.344,15.676-35.021,35.014-35.021c19.335,0,35.009,15.678,35.009,35.021c0,7.924-2.661,15.212-7.097,21.083H140.5 c8.001-10.582,12.815-23.721,12.815-38.014C153.311,118.063,139.542,96.996,119.4,86.452z M100.801,54.648l-1.35-0.033 c0.557-0.832,1.049-1.718,1.454-2.643C100.801,52.859,100.764,53.756,100.801,54.648z M101.879,40.717 c2.102-0.563,4.273,0.689,4.838,2.796c0.558,2.106-0.69,4.273-2.791,4.842c-2.11,0.563-4.283-0.684-4.85-2.796 C98.514,43.458,99.764,41.28,101.879,40.717z M90.193,66.917c-28.353,0-47.371-2.878-51.568-5.149 c4.085-2.211,22.201-4.985,49.264-5.138c0.165,0.728,0.506,1.373,1.032,1.893c1.856,1.861,5.111,1.598,8.782-1.833 c1.149,0.022,2.282,0.049,3.394,0.077l0.05,0.306c1.411,5.28,4.235,7.277,6.878,6.572c2.139-0.575,3.409-2.834,3.082-6.452 c16.655,0.952,27.6,2.922,30.663,4.575C137.557,64.033,118.53,66.917,90.193,66.917z"></path> <path d="M93.551,153.423c4.779-5.903,0.219-13.625-4.994-17.996c0.975,4.765-6.936,11.464-1.821,18.002 c-6.535,0.34-11.418,1.609-11.418,3.124v20.608c0,1.783,6.658,3.23,14.865,3.23c8.213,0,14.864-1.447,14.864-3.23v-20.608 C105.047,155.032,100.134,153.758,93.551,153.423z M90.183,159.137c-9.379,0-14.211-1.812-14.211-2.577 c0-0.772,4.001-2.179,11.304-2.496c0.497,0.554,1.069,1.105,1.781,1.647c-0.723-0.65-1.183-1.297-1.484-1.942l-0.164-0.378 c-1.132-3.207,2.209-6.304,2.86-10.118c2.285,3.699,4.208,7.27,2.701,10.332l-0.096,0.191l-0.847,1.187l0.979-0.935 c7.362,0.312,11.401,1.729,11.401,2.505C104.396,157.325,99.557,159.137,90.183,159.137z"></path> <polygon points="90.193,150.337 89.537,150.989 89.537,156.56 90.193,157.21 90.84,156.56 90.84,150.989 "></polygon> <path d="M64.312,25.33c1.238,0,2.521-0.339,3.72-0.815c-1.006,0.798-1.95,1.745-2.566,2.812c-2.033,3.529-1.597,6.074,0.17,7.092 c1.758,1.018,4.183,0.115,6.219-3.404c0.621-1.067,0.962-2.358,1.154-3.622c0.184,1.264,0.532,2.555,1.155,3.617 c2.033,3.523,4.459,4.426,6.219,3.409c1.765-1.012,2.202-3.562,0.161-7.092c-0.616-1.072-1.557-2.014-2.566-2.812 c1.195,0.476,2.478,0.815,3.715,0.815c4.079,0,6.062-1.647,6.062-3.688c0-2.03-1.984-3.688-6.062-3.688 c-1.23,0-2.52,0.345-3.715,0.816c1.004-0.793,1.945-1.729,2.566-2.808c2.036-3.524,1.604-6.074-0.161-7.091 c-1.765-1.024-4.192-0.126-6.226,3.398c-0.624,1.072-0.971,2.358-1.154,3.633c-0.187-1.275-0.534-2.561-1.155-3.633 c-2.036-3.524-4.459-4.422-6.218-3.398c-1.774,1.017-2.204,3.562-0.165,7.091c0.616,1.067,1.56,2.014,2.566,2.812 c-1.191-0.476-2.481-0.821-3.72-0.821c-4.081,0-6.063,1.652-6.063,3.688C58.249,23.682,60.237,25.33,64.312,25.33z M71.528,19.086 c1.413-0.816,3.212-0.329,4.025,1.077c0.818,1.412,0.334,3.218-1.078,4.027c-1.411,0.816-3.215,0.334-4.027-1.072 C69.642,21.707,70.118,19.901,71.528,19.086z"></path> <path d="M99.378,11.556c0.872,0.126,1.801,0.011,2.689-0.202c-0.785,0.459-1.532,1.034-2.082,1.718 c-1.771,2.276-1.718,4.104-0.58,4.996c1.139,0.892,2.923,0.503,4.706-1.773c0.537-0.689,0.916-1.548,1.168-2.43 c0,0.908,0.126,1.844,0.447,2.66c1.079,2.681,2.699,3.535,4.031,2.999c1.344-0.536,1.895-2.287,0.816-4.957 c-0.332-0.816-0.897-1.571-1.527-2.227c0.799,0.449,1.664,0.82,2.536,0.941c2.861,0.405,4.413-0.558,4.622-1.986 c0.196-1.434-1.04-2.785-3.895-3.19c-0.867-0.115-1.808-0.005-2.684,0.214c0.783-0.46,1.532-1.029,2.082-1.718 c1.783-2.276,1.722-4.11,0.578-4.996c-1.139-0.887-2.922-0.498-4.706,1.778c-0.536,0.69-0.914,1.565-1.158,2.43 c-0.008-0.903-0.122-1.838-0.456-2.654c-1.078-2.676-2.696-3.545-4.031-3.003c-1.335,0.547-1.904,2.287-0.821,4.963 c0.327,0.815,0.896,1.57,1.521,2.221c-0.789-0.449-1.652-0.82-2.529-0.936c-2.859-0.405-4.417,0.558-4.618,1.986 C95.288,9.805,96.519,11.152,99.378,11.556z M106.139,7.759c1.136,0.153,1.942,1.214,1.771,2.358 c-0.153,1.144-1.215,1.938-2.354,1.773c-1.148-0.159-1.947-1.214-1.783-2.358C103.936,8.388,104.989,7.601,106.139,7.759z"></path> </g> </g> </g></svg>